PathFileType	4	(X/Y/Z)	C:/Users/opensim2020/Desktop/walking_exp_matlab/subject02_walking09_straight_02.trc																																																																																																																												
DataRate	CameraRate	NumFrames	NumMarkers	Units	OrigDataRate	OrigDataStartFrame	OrigNumFrames																																																																																																																								
100	100	7	42	mm	100	1486	436																																																																																																																								
Frame#	Time	LFHD			RFHD			LBHD			RBHD			C7			T10			CLAV			STRN			RBAK			LSHO			LUPA			LELB			LFRM			LWRA			LWRB			LFIN			RSHO			RUPA			RELB			RFRM			RWRA			RWRB			RFIN			LASI			RASI			LPSI			RPSI			LTHI			LKNE			LTIB			LANK			LHEE			LTOE			RTHI			RKNE			RTIB			RANK			RHEE			RTOE			*39			*40			*41		
		X1	Y1	Z1	X2	Y2	Z2	X3	Y3	Z3	X4	Y4	Z4	X5	Y5	Z5	X6	Y6	Z6	X7	Y7	Z7	X8	Y8	Z8	X9	Y9	Z9	X10	Y10	Z10	X11	Y11	Z11	X12	Y12	Z12	X13	Y13	Z13	X14	Y14	Z14	X15	Y15	Z15	X16	Y16	Z16	X17	Y17	Z17	X18	Y18	Z18	X19	Y19	Z19	X20	Y20	Z20	X21	Y21	Z21	X22	Y22	Z22	X23	Y23	Z23	X24	Y24	Z24	X25	Y25	Z25	X26	Y26	Z26	X27	Y27	Z27	X28	Y28	Z28	X29	Y29	Z29	X30	Y30	Z30	X31	Y31	Z31	X32	Y32	Z32	X33	Y33	Z33	X34	Y34	Z34	X35	Y35	Z35	X36	Y36	Z36	X37	Y37	Z37	X38	Y38	Z38	X39	Y39	Z39	X40	Y40	Z40	X41	Y41	Z41	X42	Y42	Z42
																																																																																																																															
273	2.72	-80.80831	1731.57007	-1464.87256	-105.32312	1694.92834	-1327.70117	-203.73299	1654.89502	-1505.80127	-240.34184	1616.82129	-1372.00891	-266.849	1510.41125	-1451.90198	-324.96036	1234.50134	-1449.61096	-129.26149	1438.43481	-1456.79761	-79.57037	1266.55505	-1452.02966	-331.71814	1335.53259	-1395.45923	-181.86177	1489.03149	-1628.85376	-172.7056	1289.39807	-1715.10107	-151.23972	1149.57373	-1732.86877	-102.73287	1025.06506	-1740.10608	-13.93748	925.17029	-1700.78174	-55.6833	911.90186	-1737.14551	-14.62874	860.11981	-1739.10779	-199.67673	1464.22058	-1262.05298	-252.97563	1276.66077	-1187.1582	-256.89682	1130.57922	-1172.6571	-244.86528	1012.03979	-1149.20166	-207.26128	880.53937	-1160.1272	-258.08453	882.9281	-1135.4928	-228.52272	816.71741	-1128.23645	-98.6941	962.38513	-1584.41919	-80.47745	968.84473	-1329.36963	-302.17987	1013.47363	-1491.35718	-301.48691	1018.23798	-1375.21033	-230.3381	665.98352	-1635.44739	-301.30563	481.99353	-1614.29004	-444.56732	350.06992	-1608.07996	-550.20117	148.29947	-1583.55505	-584.79028	141.52884	-1528.2666	-438.20871	33.25453	-1598.76855	-91.46007	670.25269	-1253.89453	-42.99261	468.6055	-1299.0271	-63.52588	281.05359	-1293.76221	-64.43522	89.48981	-1331.36853	-95.20926	37.52314	-1388.61292	89.86143	36.73405	-1314.396	-200.44859	1782.42554	-1387.44238	-2845.21851	1034.06628	3360.33276	NaN	NaN	NaN
274	2.73	-72.49022	1732.85364	-1462.37585	-97.14084	1695.7356	-1325.16797	-195.59393	1656.46716	-1503.43152	-232.34618	1618.0542	-1369.7605	-258.94211	1511.37561	-1449.67883	-316.16354	1235.25342	-1446.72534	-121.16094	1439.87781	-1454.70813	-71.0147	1268.09888	-1449.86829	-323.19708	1336.24268	-1393.25098	-174.4688	1490.47327	-1626.9397	-167.08496	1290.36902	-1712.34216	-147.79247	1150.13904	-1728.95715	-102.5704	1024.57483	-1736.78833	-16.10893	922.31848	-1698.91528	-58.60725	910.02222	-1734.55383	-18.9798	856.88635	-1736.77185	-191.79443	1465.87842	-1260.18787	-242.42213	1277.75745	-1184.52295	-245.96935	1131.68298	-1170.4436	-233.44046	1013.23706	-1146.74719	-196.55907	881.6991	-1157.83801	-247.19557	884.25519	-1132.86035	-218.22835	817.61725	-1125.57825	-89.53984	963.5354	-1580.78809	-71.12164	970.49652	-1326.50061	-293.29303	1014.48645	-1488.98535	-292.28778	1018.88068	-1372.70923	-218.48062	665.46661	-1633.87415	-286.09506	481.88925	-1614.75317	-431.18539	353.44345	-1607.84863	-541.93884	154.84599	-1583.8291	-575.93921	149.66403	-1527.96704	-437.55093	33.81138	-1598.50793	-82.14484	671.30194	-1251.39807	-39.59442	468.10577	-1297.73804	-62.46999	280.49094	-1292.86414	-64.26284	89.4951	-1331.51685	-95.18655	37.54715	-1388.72705	90.10735	36.68793	-1314.55469	-191.9774	1783.51001	-1384.55627	-2845.07983	1034.04846	3360.21265	NaN	NaN	NaN
275	2.74	-64.51078	1734.25403	-1460.14807	-89.05665	1696.73169	-1322.84106	-187.63029	1658.05127	-1501.17432	-224.3576	1619.40051	-1367.56824	-251.0002	1512.57129	-1447.38916	-307.5134	1236.15527	-1443.91174	-113.17098	1441.40063	-1452.67224	-62.49623	1269.73157	-1447.81055	-314.51257	1337.05017	-1390.7251	-166.90747	1491.75537	-1624.51892	-161.04941	1291.26135	-1709.23425	-144.42766	1150.89685	-1725.05774	-102.65724	1024.26367	-1733.48474	-18.46141	919.45813	-1696.82422	-61.73018	908.56757	-1731.99219	-24.11623	854.24255	-1734.83875	-183.6902	1467.4325	-1257.98755	-233.30469	1279.08667	-1182.59424	-235.07088	1133.01672	-1168.27148	-222.63426	1014.7196	-1144.77039	-185.66472	883.18964	-1155.65417	-236.38641	885.84283	-1130.32141	-207.25867	818.96136	-1123.10779	-81.75186	964.51514	-1576.8938	-62.03959	971.93396	-1323.74194	-284.67117	1015.65656	-1486.38403	-283.23883	1019.81915	-1370.06213	-206.60713	665.33948	-1632.62805	-270.0267	481.29044	-1614.99146	-416.69162	356.43201	-1607.94287	-532.237	161.22537	-1583.88074	-565.99353	158.03416	-1527.79431	-435.95911	34.42561	-1597.79932	-74.36153	672.59863	-1249.36572	-35.63556	467.7424	-1296.06812	-61.03763	280.4801	-1291.79492	-64.06768	89.4925	-1331.46704	-95.20614	37.54286	-1388.7467	90.18551	36.59532	-1314.56018	-183.82422	1784.9574	-1382.0946	-2845.22241	1033.97363	3360.42261	NaN	NaN	NaN
276	2.75	-56.56087	1735.59631	-1457.94104	-80.95885	1697.73413	-1320.43701	-179.7906	1659.65247	-1498.9978	-216.48055	1620.79895	-1365.44958	-243.04509	1513.78833	-1445.15259	-299.04254	1237.12512	-1441.05969	-105.22509	1442.96155	-1450.72449	-54.02102	1271.42346	-1445.81543	-305.72333	1337.84827	-1388.04626	-159.73317	1493.20728	-1622.53992	-155.27612	1292.44031	-1706.52734	-141.09894	1151.83508	-1721.25012	-102.80724	1024.26599	-1730.28235	-20.93595	916.64099	-1694.48071	-64.95142	907.45514	-1729.45984	-29.27501	851.72546	-1732.60925	-175.62883	1469.28821	-1256.1582	-223.30444	1280.43408	-1180.34583	-224.21306	1134.47937	-1166.14099	-211.47157	1016.47491	-1142.35913	-174.22841	884.61975	-1153.20679	-224.59608	887.38989	-1127.68286	-195.92143	820.51648	-1120.60156	-72.68504	966.14819	-1573.93713	-53.20634	973.2514	-1321.23682	-276.41132	1017.07654	-1483.81714	-274.33862	1021.08661	-1367.38428	-194.35315	664.8421	-1631.29517	-253.44603	480.60373	-1615.19507	-401.39658	359.15588	-1608.05139	-521.39331	167.94974	-1583.97412	-554.70715	165.98575	-1527.11658	-433.05618	35.51516	-1596.83264	-68.21249	673.35547	-1247.76599	-32.3737	467.94644	-1294.85242	-59.22546	280.54373	-1290.62927	-63.85787	89.47525	-1331.2948	-95.30835	37.56091	-1388.61548	90.20529	36.42839	-1314.48828	-175.61906	1786.16187	-1379.57971	-2845.15479	1034.104	3360.24341	NaN	NaN	NaN
277	2.76	-48.70737	1736.94495	-1455.98279	-73.13739	1699.0531	-1318.69214	-172.05688	1661.13892	-1497.03394	-208.64265	1622.1543	-1363.46509	-235.12007	1515.00293	-1442.78894	-290.75681	1238.17102	-1438.24536	-97.27926	1444.45679	-1448.86218	-45.65338	1272.86462	-1443.71362	-297.21106	1338.90894	-1385.32422	-152.71115	1494.72803	-1620.52783	-149.48566	1293.65576	-1703.93176	-137.79646	1152.81775	-1717.53967	-103.19919	1024.59241	-1727.41138	-23.71836	914.58716	-1692.77197	-68.22544	906.51294	-1726.96143	-34.50365	849.54095	-1730.2959	-167.19099	1471.00391	-1254.11047	-213.88554	1281.84009	-1178.19812	-213.38356	1135.99768	-1163.88721	-199.95047	1017.93176	-1139.95886	-162.72537	886.43713	-1151.01257	-212.89258	889.05383	-1125.15063	-184.06418	822.14221	-1118.16553	-64.88447	967.60992	-1570.974	-44.65335	974.38788	-1319.12366	-268.40656	1018.55463	-1481.13574	-265.63834	1022.646	-1364.58752	-181.7464	664.31036	-1630.16284	-236.40157	479.96701	-1615.41602	-385.25403	361.36084	-1607.98706	-509.1312	174.07751	-1583.29089	-542.59576	173.9299	-1526.23071	-428.45703	37.37323	-1595.96985	-63.37096	673.67554	-1246.54077	-29.0118	468.02222	-1293.64453	-57.12618	280.74597	-1289.51062	-63.61701	89.50374	-1331.00574	-95.43808	37.55382	-1388.42432	90.20856	36.40286	-1314.48267	-167.64203	1787.53894	-1377.43677	-2845.85522	1034.22632	3357.26196	NaN	NaN	NaN
278	2.77	-40.97991	1738.02356	-1453.8363	-65.29606	1700.29651	-1316.87231	-164.3681	1662.43237	-1495.09607	-200.8243	1623.41345	-1361.4519	-227.29851	1516.14612	-1440.53503	-282.93335	1239.41577	-1435.60327	-89.45248	1445.86694	-1447.20288	-37.611	1274.48608	-1442.10376	-289.04639	1340.05066	-1382.7196	-145.71803	1495.95996	-1618.44238	-143.94792	1294.9939	-1701.66968	-134.45323	1153.76611	-1713.95349	-103.37851	1024.90491	-1724.43005	-26.24442	912.14984	-1690.48035	-71.42181	905.93439	-1724.69458	-39.59634	847.37347	-1727.74866	-158.54401	1472.65967	-1252.0752	-203.29369	1283.22375	-1175.39526	-202.66368	1137.52783	-1161.65649	-189.15527	1019.65686	-1137.9917	-150.78738	888.19037	-1148.75391	-200.9689	890.65381	-1122.70471	-171.98483	823.80109	-1115.68933	-57.4605	969.16797	-1568.65283	-36.85046	975.16547	-1317.48743	-260.61554	1020.02808	-1478.43079	-257.08026	1024.29163	-1361.83655	-168.9675	663.93762	-1629.37292	-219.1492	479.49304	-1615.66931	-368.728	363.69901	-1608.23889	-496.64157	180.35522	-1582.12012	-529.57275	180.88669	-1524.46594	-421.53094	41.00498	-1596.48376	-58.92196	673.65387	-1245.41846	-25.52413	467.88513	-1292.23621	-54.89991	280.8027	-1288.30664	-63.43211	89.57487	-1330.65466	-95.62022	37.5427	-1388.27026	90.04037	36.33839	-1314.36365	-159.97565	1788.89648	-1375.57141	-2845.073	1034.2113	3360.33252	NaN	NaN	NaN
279	2.78	-33.51941	1739.67737	-1452.58838	-57.55491	1701.70728	-1315.25867	-156.80241	1663.65112	-1493.35339	-192.96713	1624.60498	-1359.66223	-219.63377	1517.25928	-1438.32617	-275.0145	1240.62817	-1432.90552	-81.7194	1447.19666	-1445.60657	-29.71597	1275.86658	-1440.49487	-280.5174	1341.19153	-1379.78088	-138.77403	1497.255	-1616.38013	-138.42709	1296.17188	-1699.48621	-131.14751	1154.70056	-1710.57776	-103.40828	1025.26892	-1721.62512	-29.04053	910.29968	-1688.66357	-74.29857	905.19397	-1722.21118	-44.99729	845.68134	-1725.54419	-149.825	1474.34387	-1250.28503	-193.23573	1284.82947	-1173.02502	-192.02094	1139.03516	-1159.36743	-177.39978	1021.17621	-1136.16577	-138.64018	889.94928	-1146.48608	-188.98329	892.15186	-1120.38293	-159.30171	825.50446	-1113.27954	-50.28927	970.68622	-1566.73364	-28.71499	975.91992	-1315.86084	-253.04318	1021.36035	-1475.68005	-248.73427	1025.88208	-1359.00647	-155.83069	663.77185	-1628.51917	-201.59326	479.07632	-1615.72473	-352.09668	365.45627	-1608.09937	-483.94305	186.36121	-1579.94299	-515.87982	187.18207	-1521.72388	-411.41299	46.1515	-1598.60193	-54.28414	673.7132	-1244.297	-22.77814	468.23111	-1291.54761	-52.45204	280.75693	-1287.19922	-63.15894	89.57664	-1330.26318	-95.82424	37.55684	-1388.07336	90.09044	36.44229	-1314.51953	-152.42165	1790.11853	-1373.82654	-2845.19312	1034.05701	3360.42188	NaN	NaN	NaN
